<svg version="1.1" xmlns="http://www.w3.org/2000/svg" viewBox="267.6 269.62 147.88 142.82">
<path d="M0 0 C2.04518983 1.88859757 3.40557893 3.68551781 5 6 C5.99 6.495 5.99 6.495 7 7 C7.67578774 9.9976456 8.19630311 12.9009884 8.625 15.9375 C8.82174316 17.3304126 8.82174316 17.3304126 9.02246094 18.75146484 C10.51541097 30.4876032 10.30260576 42.19648424 10 54 C9.98453125 54.91152832 9.9690625 55.82305664 9.953125 56.76220703 C9.68336167 71.64134052 7.53997476 84.86684724 0 98 C0.66 97.67 1.32 97.34 2 97 C9.39353542 97.05406607 15.26725415 98.51150277 21.4375 102.625 C23.85436622 106.29863665 23.73481156 109.73656211 23 114 C19.23860219 120.89589599 11.96969314 123.92580469 4.75 126.0625 C-13.28534482 130.73158468 -32.4024733 132.66192169 -51 133 C-52.1859375 133.03109863 -53.371875 133.06219727 -54.59375 133.09423828 C-57.98237625 133.17720292 -61.36960735 133.24032424 -64.75888062 133.28308105 C-66.7441584 133.31152098 -68.72916755 133.3571155 -70.71411133 133.40332031 C-80.93853097 133.46366846 -91.77057035 132.40045881 -100.3125 126.25 C-103.06848989 123.47302541 -104.13788526 120.92305293 -104.2421875 117.01171875 C-103.78372526 113.2035243 -102.69797765 110.63637999 -100 108 C-95.24136967 105.08976327 -90.29080336 102.76360112 -85 101 C-85.70125 99.948125 -86.4025 98.89625 -87.125 97.8125 C-96.55840442 82.64877542 -96.55840442 82.64877542 -96 74 C-96.68964844 73.97421875 -97.37929688 73.9484375 -98.08984375 73.921875 C-107.72270446 73.34046777 -115.03951254 70.79071948 -122 64 C-124.92403434 59.28738108 -124.57441318 54.36603705 -124 49 C-122.24804919 42.26495559 -118.80868816 37.75788899 -113 34 C-107.06538362 30.61499029 -101.73946459 29.59487299 -95 29 C-95.02094727 28.23856689 -95.04189453 27.47713379 -95.06347656 26.69262695 C-95.14677795 23.23271968 -95.19870584 19.77302362 -95.25 16.3125 C-95.28351563 15.11431641 -95.31703125 13.91613281 -95.3515625 12.68164062 C-95.36445313 11.52470703 -95.37734375 10.36777344 -95.390625 9.17578125 C-95.41157227 8.11270752 -95.43251953 7.04963379 -95.45410156 5.9543457 C-94.88817752 2.27249258 -93.57019246 0.64418464 -91 -2 C-69.45781192 -12.00692859 -20.39936822 -12.24773201 0 0 Z M-90 4 C-90.3061773 6.93284872 -90.3061773 6.93284872 -89 10 C-84.00714694 14.28917826 -78.3517207 16.06834572 -72 17.25 C-71.16678223 17.41274414 -70.33356445 17.57548828 -69.47509766 17.74316406 C-61.6689399 19.19277277 -53.93509177 19.8435793 -46 20 C-44.57929199 20.03867187 -44.57929199 20.03867187 -43.12988281 20.078125 C-20.15027539 21.63677161 -20.15027539 21.63677161 0 13 C1.23901711 11.12907319 1.23901711 11.12907319 1 9 C-1.80992989 3.99099454 -5.75276053 2.60365454 -11 1 C-28.10215098 -3.12757008 -76.04396074 -9.95603926 -90 4 Z M-91 14 C-91.33 20.6 -91.66 27.2 -92 34 C-95.3 34 -98.6 34 -102 34 C-107.98877949 35.80277969 -113.59089596 38.61522646 -117.1875 43.875 C-119.65883732 48.69779634 -120.56410294 53.30484149 -119.4375 58.6875 C-115.86321724 64.43743314 -110.45066326 67.47781379 -104 69 C-100.00524592 69.50547871 -96.02114257 69.80564478 -92 70 C-92 71.32 -92 72.64 -92 74 C-91.00792841 83.67269798 -85.72232054 94.00758933 -78.6875 100.6875 C-73.86819009 104.43585215 -68.69377469 106.86673242 -63 109 C-62.01257813 109.39316406 -61.02515625 109.78632813 -60.0078125 110.19140625 C-46.63300867 114.97765151 -31.26515341 114.74800323 -18.2890625 108.74609375 C-7.87331069 103.00648277 -1.66907049 94.3074819 1.9375 83.08203125 C5.15670338 71.11835716 5.16197898 59.10062805 5.13037109 46.80151367 C5.12498828 44.30706774 5.13035725 41.81280002 5.13671875 39.31835938 C5.13605823 37.70833294 5.13477762 36.09830662 5.1328125 34.48828125 C5.13584885 33.38798332 5.13584885 33.38798332 5.13894653 32.26545715 C5.11732462 27.43192289 4.67838641 22.78676727 4 18 C0.99794223 17.72837436 0.99794223 17.72837436 -1.125 19.375 C-21.45789295 30.86750471 -59.18387983 24.69422048 -80.625 19.1953125 C-84 18 -84 18 -91 14 Z M-8.859375 106.8984375 C-17.35058841 115.23470176 -30.7644928 117.03066295 -42.1875 117.375 C-53.30269236 117.03322269 -67.45070197 113.56554101 -76.3125 106.625 C-79.37641035 104.77240304 -81.27172882 104.65551764 -84.77734375 105.32421875 C-90.26230645 106.99187876 -95.37315268 109.14074592 -99.1875 113.5 C-100.18347507 116.56453867 -100.15682181 117.9922633 -99 121 C-95.40506875 126.09281927 -89.5583062 127.06225143 -83.8359375 128.5703125 C-56.26511704 132.74770954 -9.20788846 131.56645401 15.25 116.6875 C18.24495535 114.17053176 18.24495535 114.17053176 19.1875 110.4375 C19.24897464 107.06727841 19.24897464 107.06727841 17.75 104.6875 C13.43964372 102.04250864 8.96050644 101.60769737 4 101 C2.783125 100.79375 1.56625 100.5875 0.3125 100.375 C-4.21037642 101.22837291 -5.80328515 103.59739388 -8.859375 106.8984375 Z " fill="#000000" transform="translate(392,279)"/>
<path d="M0 0 C2.14453125 0.1640625 2.14453125 0.1640625 4 1 C5.60725635 4.21451269 5.05748185 7.43612536 5 11 C6.03125 11.0825 7.0625 11.165 8.125 11.25 C13.77570657 12.34368514 16.81287808 14.45994995 20.3125 19 C23.06111512 23.88642688 23.7117693 28.3948168 23 34 C20.58462953 41.75806493 16.61127833 47.81126622 9.375 51.75 C0.15019212 56.47259789 -10.57388123 56.340609 -20.6875 56.3125 C-21.85861328 56.32861328 -23.02972656 56.34472656 -24.23632812 56.36132812 C-33.25896578 56.36641704 -39.97447245 55.43615864 -46.875 49.125 C-47.61492187 48.46757812 -48.35484375 47.81015625 -49.1171875 47.1328125 C-52.5637987 43.22855997 -53.40062395 39.42033795 -53.25390625 34.24609375 C-52.48873784 27.47729625 -50.34211395 21.26316843 -46 16 C-43.32655486 14.21770324 -42.26229641 14 -39 14 C-38.67 10.37 -38.34 6.74 -38 3 C-36.68 2.67 -35.36 2.34 -34 2 C-30.75 4.3125 -30.75 4.3125 -28 7 C-28 7.66 -28 8.32 -28 9 C-27.32582031 8.83757812 -26.65164063 8.67515625 -25.95703125 8.5078125 C-22.50328737 7.91469928 -19.19047932 7.92509368 -15.6875 7.875 C-10.53872556 7.69140513 -7.15021459 7.02444934 -3.3125 3.375 C-2.75175781 2.72273438 -2.19101562 2.07046875 -1.61328125 1.3984375 C-1.08089844 0.93695313 -0.54851562 0.47546875 0 0 Z M0 5 C-2.90802461 7.21928194 -4.95312762 8.92969143 -7 12 C-10.23046875 12.2578125 -10.23046875 12.2578125 -14.1875 12.125 C-18.21979478 12.00439298 -21.82076008 11.96963595 -25.8046875 12.64453125 C-26.85914063 12.76183594 -27.91359375 12.87914062 -29 13 C-31.9375 10.5625 -31.9375 10.5625 -34 8 C-34.020625 9.258125 -34.04125 10.51625 -34.0625 11.8125 C-34.328125 14.0390625 -34.328125 14.0390625 -35 16 C-38.3125 17.6875 -38.3125 17.6875 -42 19 C-46.60309427 23.60309427 -48.06501839 28.50528451 -48.5625 34.875 C-48.46118691 40.04196774 -46.5810934 42.62145835 -43.1171875 46.30859375 C-37.98222052 50.41088287 -33.26416975 51.48758299 -26.8125 51.6875 C-26.06073486 51.71875977 -25.30896973 51.75001953 -24.53442383 51.78222656 C-23.03654811 51.84069592 -21.53839381 51.89247674 -20.04003906 51.93701172 C-18.31497371 51.99027487 -16.59082406 52.07204017 -14.8671875 52.16015625 C-4.84997308 52.49601038 5.10862549 50.46177768 13 44 C17.92988138 38.68091746 19.4249957 34.62482783 19.24609375 27.46875 C18.75279779 22.52013023 17.02846553 19.88495871 13.3125 16.6875 C9.32921552 14.6582796 6.4322426 14.3056719 2 14 C2.04125 12.88625 2.0825 11.7725 2.125 10.625 C2.41121859 6.95633975 2.41121859 6.95633975 0 5 Z " fill="#000000" transform="translate(364,311)"/>
<path d="M0 0 C0.80824219 0.10183594 1.61648438 0.20367187 2.44921875 0.30859375 C3.06410156 0.39238281 3.67898438 0.47617187 4.3125 0.5625 C5.9402833 6.71028871 6.51440089 12.20262196 6.3125 18.5625 C0.07329752 19.91948967 -4.06291798 19.49616487 -9.83984375 16.765625 C-11.6875 15.5625 -11.6875 15.5625 -13.6875 12.5625 C-13.60599479 8.16121862 -13.14105387 6.1115389 -10.3125 2.6875 C-6.67054966 -0.26074551 -4.49241309 -0.58596692 0 0 Z M-7.0625 6.3125 C-7.59875 7.055 -8.135 7.7975 -8.6875 8.5625 C-8.3575 9.8825 -8.0275 11.2025 -7.6875 12.5625 C-3.2325 13.5525 -3.2325 13.5525 1.3125 14.5625 C0.9825 11.2625 0.6525 7.9625 0.3125 4.5625 C-4.50830446 4.06816747 -4.50830446 4.06816747 -7.0625 6.3125 Z " fill="#000000" transform="translate(293.6875,321.4375)"/>
<path d="M0 0 C1.65 0.33 3.3 0.66 5 1 C5.09978121 4.49234244 4.77842938 7.59437148 4 11 C5.98 10.34 7.96 9.68 10 9 C9.125 13.875 9.125 13.875 8 15 C6.23252271 15.12562235 4.45939708 15.17576558 2.6875 15.1875 C1.72199219 15.20167969 0.75648438 15.21585937 -0.23828125 15.23046875 C-3.01519158 14.99873224 -4.63473141 14.42140844 -7 13 C-6.67 12.01 -6.34 11.02 -6 10 C-4.35 10.33 -2.7 10.66 -1 11 C-1.20625 9.9275 -1.4125 8.855 -1.625 7.75 C-1.9876191 4.12380904 -1.98362069 2.91708924 0 0 Z " fill="#000000" transform="translate(348,341)"/>
<path d="M0 0 C1.67542976 0.28604898 3.34385343 0.61781233 5 1 C4.67 2.65 4.34 4.3 4 6 C2.125 6.625 2.125 6.625 0 7 C-0.66 6.34 -1.32 5.68 -2 5 C-1.46428571 1.46428571 -1.46428571 1.46428571 0 0 Z " fill="#000000" transform="translate(338,333)"/>
<path d="M0 0 C1.65 0.33 3.3 0.66 5 1 C4.67 2.32 4.34 3.64 4 5 C2.68 5.33 1.36 5.66 0 6 C-0.66 5.01 -1.32 4.02 -2 3 C-1.34 2.01 -0.68 1.02 0 0 Z " fill="#000000" transform="translate(358,333)"/>
</svg>